<svg width="24" height="24" viewBox="0 0 24 24" fill="none" xmlns="http://www.w3.org/2000/svg">
<g id="Blog Social Icon / Hover (facebook Icon">
<mask id="mask0_144_409" style="mask-type:alpha" maskUnits="userSpaceOnUse" x="0" y="0" width="24" height="24">
<rect id="Rectangle 55" width="24" height="24" fill="#C4C4C4"/>
</mask>
<g mask="url(#mask0_144_409)">
<path id="Vector" d="M12.3953 4.21215C11.1391 4.40815 10.1507 5.144 9.6278 6.27185C9.25156 7.09023 9.17504 7.58882 9.17504 9.28404V10.4841H8.09417C7.49475 10.4841 6.97504 10.4979 6.93359 10.515C6.88896 10.5357 6.822 10.5838 6.78693 10.6251C6.71997 10.7007 6.71997 10.7248 6.71997 12.2859C6.71997 13.737 6.72635 13.878 6.77736 13.9433C6.88577 14.0912 6.92722 14.0946 8.07185 14.0946H9.17504V17.8083V21.5219L9.26751 21.6319L9.35997 21.7454L10.8458 21.7557C12.1562 21.7626 12.3443 21.7592 12.4304 21.711C12.6281 21.601 12.6185 21.7729 12.6185 17.7567V14.0946H13.8939C14.8121 14.0946 15.1884 14.0843 15.249 14.0533C15.4243 13.9674 15.4243 13.9536 15.4243 12.2756V10.7248L15.3319 10.6148L15.2394 10.5013L13.9258 10.491L12.6153 10.4807L12.6249 9.37L12.6345 8.26278L12.7301 8.05991C12.8353 7.83984 13.0107 7.69198 13.2466 7.62321C13.3136 7.60258 13.7855 7.58194 14.2924 7.57507C14.8026 7.56475 15.2521 7.551 15.2904 7.54068C15.3319 7.53037 15.402 7.48223 15.4434 7.43409L15.52 7.34468V5.85922C15.52 4.40127 15.52 4.37376 15.453 4.29811C15.4179 4.25685 15.351 4.20871 15.3063 4.18808C15.1788 4.1365 12.7524 4.15713 12.3953 4.21215Z" fill="#059BE5"/>
</g>
</g>
</svg>
